# xmcd
#
# Track frame offsets: 
#        150
#        17665
#        33735
#        52535
#        72453
#        90465
#        112660
#        130319
#        148028
#        170002
#        195006
#
# Disc length: 2795 seconds
#
# Revision: 0
# Processed by: cddbd v1.5.2PL0 Copyright (c) Steve Scherf et al.
# Submitted via: ExactAudioCopy v1.0b6
#
DISCID=880ae90b
DTITLE=Dave Goodman - Cut To The Chase
DYEAR=2017
DGENRE=
TTITLE0=She's Gone
TTITLE1=Your Man
TTITLE2=Don't Turn Around
TTITLE3=Brother
TTITLE4=Juniper
TTITLE5=The Night We Chased The Day
TTITLE6=All Circles A Chain
TTITLE7=Make My Day
TTITLE8=Hypnotized
TTITLE9=Waitin' on Your Love
TTITLE10=You Must Be In Love
EXTD=
EXTT0=
EXTT1=
EXTT2=
EXTT3=
EXTT4=
EXTT5=
EXTT6=
EXTT7=
EXTT8=
EXTT9=
EXTT10=
PLAYORDER=
